<svg width="24" height="20" viewBox="0 0 24 20" fill="none" xmlns="http://www.w3.org/2000/svg">
<path d="M18.6815 18.0356H19.195C20.3996 18.0356 21.3577 17.4867 22.218 16.7193C24.4035 14.7697 19.266 12.7975 17.5122 12.7975M15.417 2.39333C15.6549 2.34615 15.9019 2.32129 16.1554 2.32129C18.0619 2.32129 19.6075 3.7284 19.6075 5.46414C19.6075 7.19989 18.0619 8.607 16.1554 8.607C15.9019 8.607 15.6549 8.58217 15.417 8.53492" stroke="#555E75" stroke-width="1.5" stroke-linecap="round"/>
<path d="M3.87328 13.9615C2.63817 14.6234 -0.600234 15.9749 1.37216 17.6661C2.33567 18.4922 3.40876 19.0831 4.75789 19.0831H12.4564C13.8055 19.0831 14.8786 18.4922 15.8421 17.6661C17.8145 15.9749 14.5761 14.6234 13.341 13.9615C10.4447 12.4093 6.7696 12.4093 3.87328 13.9615Z" stroke="#555E75" stroke-width="1.5"/>
<path d="M12.7979 4.94047C12.7979 7.25481 10.9218 9.13094 8.60746 9.13094C6.29313 9.13094 4.41699 7.25481 4.41699 4.94047C4.41699 2.62614 6.29313 0.75 8.60746 0.75C10.9218 0.75 12.7979 2.62614 12.7979 4.94047Z" stroke="#555E75" stroke-width="1.5"/>
</svg>
